solid Silo
   facet normal 9.977665e-01 -6.679250e-02 -8.374225e-04
      outer loop
         vertex -7.433081e+02 9.996521e+01 4.452628e+03
         vertex -7.500000e+02 -1.836970e-13 4.452628e+03
         vertex -7.483252e+02 5.009447e+01 2.452628e+03
      endloop
   endfacet
   facet normal 9.949778e-01 -1.000957e-01 0.000000e+00
      outer loop
         vertex -7.483252e+02 5.009447e+01 2.452628e+03
         vertex -7.433081e+02 9.996521e+01 2.452628e+03
         vertex -7.433081e+02 9.996521e+01 4.452628e+03
      endloop
   endfacet
   facet normal 9.860702e-01 -1.663294e-01 0.000000e+00
      outer loop
         vertex -7.433081e+02 9.996521e+01 4.452628e+03
         vertex -7.433081e+02 9.996521e+01 2.452628e+03
         vertex -7.349713e+02 1.493895e+02 2.452628e+03
      endloop
   endfacet
   facet normal 9.799614e-01 -1.991859e-01 -8.374171e-04
      outer loop
         vertex -7.433081e+02 9.996521e+01 4.452628e+03
         vertex -7.349713e+02 1.493895e+02 2.452628e+03
         vertex -7.233519e+02 1.981466e+02 4.452628e+03
      endloop
   endfacet
   facet normal 9.727587e-01 -2.318200e-01 0.000000e+00
      outer loop
         vertex -7.349713e+02 1.493895e+02 2.452628e+03
         vertex -7.233519e+02 1.981466e+02 2.452628e+03
         vertex -7.233519e+02 1.981466e+02 4.452628e+03
      endloop
   endfacet
   facet normal 9.551024e-01 -2.962759e-01 0.000000e+00
      outer loop
         vertex -7.233519e+02 1.981466e+02 4.452628e+03
         vertex -7.233519e+02 1.981466e+02 2.452628e+03
         vertex -7.085018e+02 2.460186e+02 2.452628e+03
      endloop
   endfacet
   facet normal 9.446688e-01 -3.280246e-01 -8.374086e-04
      outer loop
         vertex -7.233519e+02 1.981466e+02 4.452628e+03
         vertex -7.085018e+02 2.460186e+02 2.452628e+03
         vertex -6.904874e+02 2.927920e+02 4.452628e+03
      endloop
   endfacet
   facet normal 9.331808e-01 -3.594072e-01 0.000000e+00
      outer loop
         vertex -7.085018e+02 2.460186e+02 2.452628e+03
         vertex -6.904874e+02 2.927920e+02 2.452628e+03
         vertex -6.904874e+02 2.927920e+02 4.452628e+03
      endloop
   endfacet
   facet normal 9.070907e-01 -4.209353e-01 0.000000e+00
      outer loop
         vertex -6.904874e+02 2.927920e+02 4.452628e+03
         vertex -6.904874e+02 2.927920e+02 2.452628e+03
         vertex -6.693891e+02 3.382576e+02 2.452628e+03
      endloop
   endfacet
   facet normal 8.925183e-01 -4.510104e-01 -8.374156e-04
      outer loop
         vertex -6.904874e+02 2.927920e+02 4.452628e+03
         vertex -6.693891e+02 3.382576e+02 2.452628e+03
         vertex -6.453012e+02 3.822125e+02 4.452628e+03
      endloop
   endfacet
   facet normal 8.769498e-01 -4.805820e-01 0.000000e+00
      outer loop
         vertex -6.693891e+02 3.382576e+02 2.452628e+03
         vertex -6.453012e+02 3.822125e+02 2.452628e+03
         vertex -6.453012e+02 3.822125e+02 4.452628e+03
      endloop
   endfacet
   facet normal 8.428926e-01 -5.380818e-01 0.000000e+00
      outer loop
         vertex -6.453012e+02 3.822125e+02 4.452628e+03
         vertex -6.453012e+02 3.822125e+02 2.452628e+03
         vertex -6.183312e+02 4.244603e+02 2.452628e+03
      endloop
   endfacet
   facet normal 8.244415e-01 -5.659466e-01 -8.374270e-04
      outer loop
         vertex -6.453012e+02 3.822125e+02 4.452628e+03
         vertex -6.183312e+02 4.244603e+02 2.452628e+03
         vertex -5.885996e+02 4.648124e+02 4.452628e+03
      endloop
   endfacet
   facet normal 8.050701e-01 -5.931796e-01 0.000000e+00
      outer loop
         vertex -6.183312e+02 4.244603e+02 2.452628e+03
         vertex -5.885996e+02 4.648124e+02 2.452628e+03
         vertex -5.885996e+02 4.648124e+02 4.452628e+03
      endloop
   endfacet
   facet normal 7.636517e-01 -6.456285e-01 0.000000e+00
      outer loop
         vertex -5.885996e+02 4.648124e+02 4.452628e+03
         vertex -5.885996e+02 4.648124e+02 2.452628e+03
         vertex -5.562391e+02 5.030885e+02 2.452628e+03
      endloop
   endfacet
   facet normal 7.416516e-01 -6.707848e-01 -8.374084e-04
      outer loop
         vertex -5.885996e+02 4.648124e+02 4.452628e+03
         vertex -5.562391e+02 5.030885e+02 2.452628e+03
         vertex -5.213943e+02 5.391178e+02 4.452628e+03
      endloop
   endfacet
   facet normal 7.188237e-01 -6.951924e-01 0.000000e+00
      outer loop
         vertex -5.562391e+02 5.030885e+02 2.452628e+03
         vertex -5.213943e+02 5.391178e+02 2.452628e+03
         vertex -5.213943e+02 5.391178e+02 4.452628e+03
      endloop
   endfacet
   facet normal 6.707847e-01 -7.416521e-01 0.000000e+00
      outer loop
         vertex -5.213943e+02 5.391178e+02 4.452628e+03
         vertex -5.213943e+02 5.391178e+02 2.452628e+03
         vertex -4.842209e+02 5.727391e+02 2.452628e+03
      endloop
   endfacet
   facet normal 6.456278e-01 -7.636517e-01 -8.374117e-04
      outer loop
         vertex -5.213943e+02 5.391178e+02 4.452628e+03
         vertex -4.842209e+02 5.727391e+02 2.452628e+03
         vertex -4.448848e+02 6.038026e+02 4.452628e+03
      endloop
   endfacet
   facet normal 6.197504e-01 -7.847990e-01 0.000000e+00
      outer loop
         vertex -4.842209e+02 5.727391e+02 2.452628e+03
         vertex -4.448848e+02 6.038026e+02 2.452628e+03
         vertex -4.448848e+02 6.038026e+02 4.452628e+03
      endloop
   endfacet
   facet normal 5.659466e-01 -8.244419e-01 0.000000e+00
      outer loop
         vertex -4.448848e+02 6.038026e+02 4.452628e+03
         vertex -4.448848e+02 6.038026e+02 2.452628e+03
         vertex -4.035618e+02 6.321692e+02 2.452628e+03
      endloop
   endfacet
   facet normal 5.380821e-01 -8.428920e-01 -8.374071e-04
      outer loop
         vertex -4.448848e+02 6.038026e+02 4.452628e+03
         vertex -4.035618e+02 6.321692e+02 2.452628e+03
         vertex -3.604363e+02 6.577125e+02 4.452628e+03
      endloop
   endfacet
   facet normal 5.096171e-01 -8.604013e-01 0.000000e+00
      outer loop
         vertex -4.035618e+02 6.321692e+02 2.452628e+03
         vertex -3.604363e+02 6.577125e+02 2.452628e+03
         vertex -3.604363e+02 6.577125e+02 4.452628e+03
      endloop
   endfacet
   facet normal 4.510097e-01 -8.925190e-01 0.000000e+00
      outer loop
         vertex -3.604363e+02 6.577125e+02 4.452628e+03
         vertex -3.604363e+02 6.577125e+02 2.452628e+03
         vertex -3.157011e+02 6.803182e+02 2.452628e+03
      endloop
   endfacet
   facet normal 4.209348e-01 -9.070905e-01 -8.374045e-04
      outer loop
         vertex -3.604363e+02 6.577125e+02 4.452628e+03
         vertex -3.157011e+02 6.803182e+02 2.452628e+03
         vertex -2.695558e+02 6.998855e+02 4.452628e+03
      endloop
   endfacet
   facet normal 3.903900e-01 -9.206496e-01 0.000000e+00
      outer loop
         vertex -3.157011e+02 6.803182e+02 2.452628e+03
         vertex -2.695558e+02 6.998855e+02 2.452628e+03
         vertex -2.695558e+02 6.998855e+02 4.452628e+03
      endloop
   endfacet
   facet normal 3.280246e-01 -9.446692e-01 0.000000e+00
      outer loop
         vertex -2.695558e+02 6.998855e+02 4.452628e+03
         vertex -2.695558e+02 6.998855e+02 2.452628e+03
         vertex -2.222067e+02 7.163269e+02 2.452628e+03
      endloop
   endfacet
   facet normal 2.962754e-01 -9.551022e-01 -8.374168e-04
      outer loop
         vertex -2.695558e+02 6.998855e+02 4.452628e+03
         vertex -2.222067e+02 7.163269e+02 2.452628e+03
         vertex -1.738651e+02 7.295690e+02 4.452628e+03
      endloop
   endfacet
   facet normal 2.641954e-01 -9.644692e-01 0.000000e+00
      outer loop
         vertex -2.222067e+02 7.163269e+02 2.452628e+03
         vertex -1.738651e+02 7.295690e+02 2.452628e+03
         vertex -1.738651e+02 7.295690e+02 4.452628e+03
      endloop
   endfacet
   facet normal 1.991853e-01 -9.799618e-01 0.000000e+00
      outer loop
         vertex -1.738651e+02 7.295690e+02 4.452628e+03
         vertex -1.738651e+02 7.295690e+02 2.452628e+03
         vertex -1.247470e+02 7.395527e+02 2.452628e+03
      endloop
   endfacet
   facet normal 1.663289e-01 -9.860700e-01 -8.374128e-04
      outer loop
         vertex -1.738651e+02 7.295690e+02 4.452628e+03
         vertex -1.247470e+02 7.395527e+02 2.452628e+03
         vertex -7.507177e+01 7.462333e+02 4.452628e+03
      endloop
   endfacet
   facet normal 1.332869e-01 -9.910775e-01 0.000000e+00
      outer loop
         vertex -1.247470e+02 7.395527e+02 2.452628e+03
         vertex -7.507177e+01 7.462333e+02 2.452628e+03
         vertex -7.507177e+01 7.462333e+02 4.452628e+03
      endloop
   endfacet
   facet normal 6.679269e-02 -9.977669e-01 0.000000e+00
      outer loop
         vertex -7.507177e+01 7.462333e+02 4.452628e+03
         vertex -7.507177e+01 7.462333e+02 2.452628e+03
         vertex -2.506123e+01 7.495812e+02 2.452628e+03
      endloop
   endfacet
   facet normal 3.341499e-02 -9.994412e-01 -8.374208e-04
      outer loop
         vertex -7.507177e+01 7.462333e+02 4.452628e+03
         vertex -2.506123e+01 7.495812e+02 2.452628e+03
         vertex 2.506123e+01 7.495812e+02 4.452628e+03
      endloop
   endfacet
   facet normal 0.000000e+00 -1.000000e+00 0.000000e+00
      outer loop
         vertex -2.506123e+01 7.495812e+02 2.452628e+03
         vertex 2.506123e+01 7.495812e+02 2.452628e+03
         vertex 2.506123e+01 7.495812e+02 4.452628e+03
      endloop
   endfacet
   facet normal -6.679269e-02 -9.977669e-01 -0.000000e+00
      outer loop
         vertex 2.506123e+01 7.495812e+02 4.452628e+03
         vertex 2.506123e+01 7.495812e+02 2.452628e+03
         vertex 7.507177e+01 7.462333e+02 2.452628e+03
      endloop
   endfacet
   facet normal -1.000956e-01 -9.949775e-01 -8.374185e-04
      outer loop
         vertex 2.506123e+01 7.495812e+02 4.452628e+03
         vertex 7.507177e+01 7.462333e+02 2.452628e+03
         vertex 1.247470e+02 7.395527e+02 4.452628e+03
      endloop
   endfacet
   facet normal -1.332869e-01 -9.910775e-01 0.000000e+00
      outer loop
         vertex 7.507177e+01 7.462333e+02 2.452628e+03
         vertex 1.247470e+02 7.395527e+02 2.452628e+03
         vertex 1.247470e+02 7.395527e+02 4.452628e+03
      endloop
   endfacet
   facet normal -1.991853e-01 -9.799618e-01 -0.000000e+00
      outer loop
         vertex 1.247470e+02 7.395527e+02 4.452628e+03
         vertex 1.247470e+02 7.395527e+02 2.452628e+03
         vertex 1.738651e+02 7.295690e+02 2.452628e+03
      endloop
   endfacet
   facet normal -2.318198e-01 -9.727584e-01 -8.374284e-04
      outer loop
         vertex 1.247470e+02 7.395527e+02 4.452628e+03
         vertex 1.738651e+02 7.295690e+02 2.452628e+03
         vertex 2.222067e+02 7.163269e+02 4.452628e+03
      endloop
   endfacet
   facet normal -2.641954e-01 -9.644692e-01 0.000000e+00
      outer loop
         vertex 1.738651e+02 7.295690e+02 2.452628e+03
         vertex 2.222067e+02 7.163269e+02 2.452628e+03
         vertex 2.222067e+02 7.163269e+02 4.452628e+03
      endloop
   endfacet
   facet normal -3.280246e-01 -9.446692e-01 -0.000000e+00
      outer loop
         vertex 2.222067e+02 7.163269e+02 4.452628e+03
         vertex 2.222067e+02 7.163269e+02 2.452628e+03
         vertex 2.695558e+02 6.998855e+02 2.452628e+03
      endloop
   endfacet
   facet normal -3.594079e-01 -9.331802e-01 -8.374333e-04
      outer loop
         vertex 2.222067e+02 7.163269e+02 4.452628e+03
         vertex 2.695558e+02 6.998855e+02 2.452628e+03
         vertex 3.157011e+02 6.803182e+02 4.452628e+03
      endloop
   endfacet
   facet normal -3.903900e-01 -9.206496e-01 0.000000e+00
      outer loop
         vertex 2.695558e+02 6.998855e+02 2.452628e+03
         vertex 3.157011e+02 6.803182e+02 2.452628e+03
         vertex 3.157011e+02 6.803182e+02 4.452628e+03
      endloop
   endfacet
   facet normal -4.510097e-01 -8.925190e-01 -0.000000e+00
      outer loop
         vertex 3.157011e+02 6.803182e+02 4.452628e+03
         vertex 3.157011e+02 6.803182e+02 2.452628e+03
         vertex 3.604363e+02 6.577125e+02 2.452628e+03
      endloop
   endfacet
   facet normal -4.805816e-01 -8.769496e-01 -8.374322e-04
      outer loop
         vertex 3.157011e+02 6.803182e+02 4.452628e+03
         vertex 3.604363e+02 6.577125e+02 2.452628e+03
         vertex 4.035618e+02 6.321692e+02 4.452628e+03
      endloop
   endfacet
   facet normal -5.096171e-01 -8.604013e-01 0.000000e+00
      outer loop
         vertex 3.604363e+02 6.577125e+02 2.452628e+03
         vertex 4.035618e+02 6.321692e+02 2.452628e+03
         vertex 4.035618e+02 6.321692e+02 4.452628e+03
      endloop
   endfacet
   facet normal -5.659466e-01 -8.244419e-01 -0.000000e+00
      outer loop
         vertex 4.035618e+02 6.321692e+02 4.452628e+03
         vertex 4.035618e+02 6.321692e+02 2.452628e+03
         vertex 4.448848e+02 6.038026e+02 2.452628e+03
      endloop
   endfacet
   facet normal -5.931796e-01 -8.050697e-01 -8.374350e-04
      outer loop
         vertex 4.035618e+02 6.321692e+02 4.452628e+03
         vertex 4.448848e+02 6.038026e+02 2.452628e+03
         vertex 4.842209e+02 5.727391e+02 4.452628e+03
      endloop
   endfacet
   facet normal -6.197504e-01 -7.847990e-01 0.000000e+00
      outer loop
         vertex 4.448848e+02 6.038026e+02 2.452628e+03
         vertex 4.842209e+02 5.727391e+02 2.452628e+03
         vertex 4.842209e+02 5.727391e+02 4.452628e+03
      endloop
   endfacet
   facet normal -6.707847e-01 -7.416521e-01 -0.000000e+00
      outer loop
         vertex 4.842209e+02 5.727391e+02 4.452628e+03
         vertex 4.842209e+02 5.727391e+02 2.452628e+03
         vertex 5.213943e+02 5.391178e+02 2.452628e+03
      endloop
   endfacet
   facet normal -6.951922e-01 -7.188234e-01 -8.374217e-04
      outer loop
         vertex 4.842209e+02 5.727391e+02 4.452628e+03
         vertex 5.213943e+02 5.391178e+02 2.452628e+03
         vertex 5.562391e+02 5.030885e+02 4.452628e+03
      endloop
   endfacet
   facet normal -7.188237e-01 -6.951924e-01 0.000000e+00
      outer loop
         vertex 5.213943e+02 5.391178e+02 2.452628e+03
         vertex 5.562391e+02 5.030885e+02 2.452628e+03
         vertex 5.562391e+02 5.030885e+02 4.452628e+03
      endloop
   endfacet
   facet normal -7.636517e-01 -6.456285e-01 -0.000000e+00
      outer loop
         vertex 5.562391e+02 5.030885e+02 4.452628e+03
         vertex 5.562391e+02 5.030885e+02 2.452628e+03
         vertex 5.885996e+02 4.648124e+02 2.452628e+03
      endloop
   endfacet
   facet normal -7.847989e-01 -6.197500e-01 -8.374323e-04
      outer loop
         vertex 5.562391e+02 5.030885e+02 4.452628e+03
         vertex 5.885996e+02 4.648124e+02 2.452628e+03
         vertex 6.183312e+02 4.244603e+02 4.452628e+03
      endloop
   endfacet
   facet normal -8.050701e-01 -5.931796e-01 0.000000e+00
      outer loop
         vertex 5.885996e+02 4.648124e+02 2.452628e+03
         vertex 6.183312e+02 4.244603e+02 2.452628e+03
         vertex 6.183312e+02 4.244603e+02 4.452628e+03
      endloop
   endfacet
   facet normal -8.428926e-01 -5.380818e-01 -0.000000e+00
      outer loop
         vertex 6.183312e+02 4.244603e+02 4.452628e+03
         vertex 6.183312e+02 4.244603e+02 2.452628e+03
         vertex 6.453012e+02 3.822125e+02 2.452628e+03
      endloop
   endfacet
   facet normal -8.604014e-01 -5.096163e-01 -8.374085e-04
      outer loop
         vertex 6.183312e+02 4.244603e+02 4.452628e+03
         vertex 6.453012e+02 3.822125e+02 2.452628e+03
         vertex 6.693891e+02 3.382576e+02 4.452628e+03
      endloop
   endfacet
   facet normal -8.769498e-01 -4.805820e-01 0.000000e+00
      outer loop
         vertex 6.453012e+02 3.822125e+02 2.452628e+03
         vertex 6.693891e+02 3.382576e+02 2.452628e+03
         vertex 6.693891e+02 3.382576e+02 4.452628e+03
      endloop
   endfacet
   facet normal -9.070907e-01 -4.209353e-01 -0.000000e+00
      outer loop
         vertex 6.693891e+02 3.382576e+02 4.452628e+03
         vertex 6.693891e+02 3.382576e+02 2.452628e+03
         vertex 6.904874e+02 2.927920e+02 2.452628e+03
      endloop
   endfacet
   facet normal -9.206496e-01 -3.903891e-01 -8.374355e-04
      outer loop
         vertex 6.693891e+02 3.382576e+02 4.452628e+03
         vertex 6.904874e+02 2.927920e+02 2.452628e+03
         vertex 7.085018e+02 2.460186e+02 4.452628e+03
      endloop
   endfacet
   facet normal -9.331808e-01 -3.594072e-01 0.000000e+00
      outer loop
         vertex 6.904874e+02 2.927920e+02 2.452628e+03
         vertex 7.085018e+02 2.460186e+02 2.452628e+03
         vertex 7.085018e+02 2.460186e+02 4.452628e+03
      endloop
   endfacet
   facet normal -9.551024e-01 -2.962759e-01 -0.000000e+00
      outer loop
         vertex 7.085018e+02 2.460186e+02 4.452628e+03
         vertex 7.085018e+02 2.460186e+02 2.452628e+03
         vertex 7.233519e+02 1.981466e+02 2.452628e+03
      endloop
   endfacet
   facet normal -9.644688e-01 -2.641954e-01 -8.374260e-04
      outer loop
         vertex 7.085018e+02 2.460186e+02 4.452628e+03
         vertex 7.233519e+02 1.981466e+02 2.452628e+03
         vertex 7.349713e+02 1.493895e+02 4.452628e+03
      endloop
   endfacet
   facet normal -9.727587e-01 -2.318200e-01 0.000000e+00
      outer loop
         vertex 7.233519e+02 1.981466e+02 2.452628e+03
         vertex 7.349713e+02 1.493895e+02 2.452628e+03
         vertex 7.349713e+02 1.493895e+02 4.452628e+03
      endloop
   endfacet
   facet normal -9.860702e-01 -1.663294e-01 -0.000000e+00
      outer loop
         vertex 7.349713e+02 1.493895e+02 4.452628e+03
         vertex 7.349713e+02 1.493895e+02 2.452628e+03
         vertex 7.433081e+02 9.996521e+01 2.452628e+03
      endloop
   endfacet
   facet normal -9.910771e-01 -1.332869e-01 -8.374213e-04
      outer loop
         vertex 7.349713e+02 1.493895e+02 4.452628e+03
         vertex 7.433081e+02 9.996521e+01 2.452628e+03
         vertex 7.483252e+02 5.009447e+01 4.452628e+03
      endloop
   endfacet
   facet normal -9.949778e-01 -1.000957e-01 0.000000e+00
      outer loop
         vertex 7.433081e+02 9.996521e+01 2.452628e+03
         vertex 7.483252e+02 5.009447e+01 2.452628e+03
         vertex 7.483252e+02 5.009447e+01 4.452628e+03
      endloop
   endfacet
   facet normal -9.994416e-01 -3.341478e-02 -0.000000e+00
      outer loop
         vertex 7.483252e+02 5.009447e+01 4.452628e+03
         vertex 7.483252e+02 5.009447e+01 2.452628e+03
         vertex 7.500000e+02 9.184851e-14 2.452628e+03
      endloop
   endfacet
   facet normal -9.999996e-01 -0.000000e+00 -8.374151e-04
      outer loop
         vertex 7.483252e+02 5.009447e+01 4.452628e+03
         vertex 7.500000e+02 9.184851e-14 2.452628e+03
         vertex 7.483252e+02 -5.009447e+01 4.452628e+03
      endloop
   endfacet
   facet normal -9.994416e-01 3.341478e-02 0.000000e+00
      outer loop
         vertex 7.500000e+02 9.184851e-14 2.452628e+03
         vertex 7.483252e+02 -5.009447e+01 2.452628e+03
         vertex 7.483252e+02 -5.009447e+01 4.452628e+03
      endloop
   endfacet
   facet normal -9.949778e-01 1.000957e-01 0.000000e+00
      outer loop
         vertex 7.483252e+02 -5.009447e+01 4.452628e+03
         vertex 7.483252e+02 -5.009447e+01 2.452628e+03
         vertex 7.433081e+02 -9.996521e+01 2.452628e+03
      endloop
   endfacet
   facet normal -9.910771e-01 1.332869e-01 -8.374213e-04
      outer loop
         vertex 7.483252e+02 -5.009447e+01 4.452628e+03
         vertex 7.433081e+02 -9.996521e+01 2.452628e+03
         vertex 7.349713e+02 -1.493895e+02 4.452628e+03
      endloop
   endfacet
   facet normal -9.860702e-01 1.663294e-01 0.000000e+00
      outer loop
         vertex 7.433081e+02 -9.996521e+01 2.452628e+03
         vertex 7.349713e+02 -1.493895e+02 2.452628e+03
         vertex 7.349713e+02 -1.493895e+02 4.452628e+03
      endloop
   endfacet
   facet normal -9.727587e-01 2.318200e-01 0.000000e+00
      outer loop
         vertex 7.349713e+02 -1.493895e+02 4.452628e+03
         vertex 7.349713e+02 -1.493895e+02 2.452628e+03
         vertex 7.233519e+02 -1.981466e+02 2.452628e+03
      endloop
   endfacet
   facet normal -9.644688e-01 2.641954e-01 -8.374260e-04
      outer loop
         vertex 7.349713e+02 -1.493895e+02 4.452628e+03
         vertex 7.233519e+02 -1.981466e+02 2.452628e+03
         vertex 7.085018e+02 -2.460186e+02 4.452628e+03
      endloop
   endfacet
   facet normal -9.551024e-01 2.962759e-01 0.000000e+00
      outer loop
         vertex 7.233519e+02 -1.981466e+02 2.452628e+03
         vertex 7.085018e+02 -2.460186e+02 2.452628e+03
         vertex 7.085018e+02 -2.460186e+02 4.452628e+03
      endloop
   endfacet
   facet normal -9.331808e-01 3.594072e-01 0.000000e+00
      outer loop
         vertex 7.085018e+02 -2.460186e+02 4.452628e+03
         vertex 7.085018e+02 -2.460186e+02 2.452628e+03
         vertex 6.904874e+02 -2.927920e+02 2.452628e+03
      endloop
   endfacet
   facet normal -9.206496e-01 3.903891e-01 -8.374355e-04
      outer loop
         vertex 7.085018e+02 -2.460186e+02 4.452628e+03
         vertex 6.904874e+02 -2.927920e+02 2.452628e+03
         vertex 6.693891e+02 -3.382576e+02 4.452628e+03
      endloop
   endfacet
   facet normal -9.070907e-01 4.209353e-01 0.000000e+00
      outer loop
         vertex 6.904874e+02 -2.927920e+02 2.452628e+03
         vertex 6.693891e+02 -3.382576e+02 2.452628e+03
         vertex 6.693891e+02 -3.382576e+02 4.452628e+03
      endloop
   endfacet
   facet normal -8.769498e-01 4.805820e-01 0.000000e+00
      outer loop
         vertex 6.693891e+02 -3.382576e+02 4.452628e+03
         vertex 6.693891e+02 -3.382576e+02 2.452628e+03
         vertex 6.453012e+02 -3.822125e+02 2.452628e+03
      endloop
   endfacet
   facet normal -8.604014e-01 5.096163e-01 -8.374085e-04
      outer loop
         vertex 6.693891e+02 -3.382576e+02 4.452628e+03
         vertex 6.453012e+02 -3.822125e+02 2.452628e+03
         vertex 6.183312e+02 -4.244603e+02 4.452628e+03
      endloop
   endfacet
   facet normal -8.428926e-01 5.380818e-01 0.000000e+00
      outer loop
         vertex 6.453012e+02 -3.822125e+02 2.452628e+03
         vertex 6.183312e+02 -4.244603e+02 2.452628e+03
         vertex 6.183312e+02 -4.244603e+02 4.452628e+03
      endloop
   endfacet
   facet normal -8.050701e-01 5.931796e-01 0.000000e+00
      outer loop
         vertex 6.183312e+02 -4.244603e+02 4.452628e+03
         vertex 6.183312e+02 -4.244603e+02 2.452628e+03
         vertex 5.885996e+02 -4.648124e+02 2.452628e+03
      endloop
   endfacet
   facet normal -7.847989e-01 6.197500e-01 -8.374323e-04
      outer loop
         vertex 6.183312e+02 -4.244603e+02 4.452628e+03
         vertex 5.885996e+02 -4.648124e+02 2.452628e+03
         vertex 5.562391e+02 -5.030885e+02 4.452628e+03
      endloop
   endfacet
   facet normal -7.636517e-01 6.456285e-01 0.000000e+00
      outer loop
         vertex 5.885996e+02 -4.648124e+02 2.452628e+03
         vertex 5.562391e+02 -5.030885e+02 2.452628e+03
         vertex 5.562391e+02 -5.030885e+02 4.452628e+03
      endloop
   endfacet
   facet normal -7.188237e-01 6.951924e-01 0.000000e+00
      outer loop
         vertex 5.562391e+02 -5.030885e+02 4.452628e+03
         vertex 5.562391e+02 -5.030885e+02 2.452628e+03
         vertex 5.213943e+02 -5.391178e+02 2.452628e+03
      endloop
   endfacet
   facet normal -6.951922e-01 7.188234e-01 -8.374217e-04
      outer loop
         vertex 5.562391e+02 -5.030885e+02 4.452628e+03
         vertex 5.213943e+02 -5.391178e+02 2.452628e+03
         vertex 4.842209e+02 -5.727391e+02 4.452628e+03
      endloop
   endfacet
   facet normal -6.707847e-01 7.416521e-01 0.000000e+00
      outer loop
         vertex 5.213943e+02 -5.391178e+02 2.452628e+03
         vertex 4.842209e+02 -5.727391e+02 2.452628e+03
         vertex 4.842209e+02 -5.727391e+02 4.452628e+03
      endloop
   endfacet
   facet normal -6.197504e-01 7.847990e-01 0.000000e+00
      outer loop
         vertex 4.842209e+02 -5.727391e+02 4.452628e+03
         vertex 4.842209e+02 -5.727391e+02 2.452628e+03
         vertex 4.448848e+02 -6.038026e+02 2.452628e+03
      endloop
   endfacet
   facet normal -5.931796e-01 8.050697e-01 -8.374350e-04
      outer loop
         vertex 4.842209e+02 -5.727391e+02 4.452628e+03
         vertex 4.448848e+02 -6.038026e+02 2.452628e+03
         vertex 4.035618e+02 -6.321692e+02 4.452628e+03
      endloop
   endfacet
   facet normal -5.659466e-01 8.244419e-01 0.000000e+00
      outer loop
         vertex 4.448848e+02 -6.038026e+02 2.452628e+03
         vertex 4.035618e+02 -6.321692e+02 2.452628e+03
         vertex 4.035618e+02 -6.321692e+02 4.452628e+03
      endloop
   endfacet
   facet normal -5.096171e-01 8.604013e-01 0.000000e+00
      outer loop
         vertex 4.035618e+02 -6.321692e+02 4.452628e+03
         vertex 4.035618e+02 -6.321692e+02 2.452628e+03
         vertex 3.604363e+02 -6.577125e+02 2.452628e+03
      endloop
   endfacet
   facet normal -4.805816e-01 8.769496e-01 -8.374322e-04
      outer loop
         vertex 4.035618e+02 -6.321692e+02 4.452628e+03
         vertex 3.604363e+02 -6.577125e+02 2.452628e+03
         vertex 3.157011e+02 -6.803182e+02 4.452628e+03
      endloop
   endfacet
   facet normal -4.510097e-01 8.925190e-01 0.000000e+00
      outer loop
         vertex 3.604363e+02 -6.577125e+02 2.452628e+03
         vertex 3.157011e+02 -6.803182e+02 2.452628e+03
         vertex 3.157011e+02 -6.803182e+02 4.452628e+03
      endloop
   endfacet
   facet normal -3.903900e-01 9.206496e-01 0.000000e+00
      outer loop
         vertex 3.157011e+02 -6.803182e+02 4.452628e+03
         vertex 3.157011e+02 -6.803182e+02 2.452628e+03
         vertex 2.695558e+02 -6.998855e+02 2.452628e+03
      endloop
   endfacet
   facet normal -3.594079e-01 9.331802e-01 -8.374333e-04
      outer loop
         vertex 3.157011e+02 -6.803182e+02 4.452628e+03
         vertex 2.695558e+02 -6.998855e+02 2.452628e+03
         vertex 2.222067e+02 -7.163269e+02 4.452628e+03
      endloop
   endfacet
   facet normal -3.280246e-01 9.446692e-01 0.000000e+00
      outer loop
         vertex 2.695558e+02 -6.998855e+02 2.452628e+03
         vertex 2.222067e+02 -7.163269e+02 2.452628e+03
         vertex 2.222067e+02 -7.163269e+02 4.452628e+03
      endloop
   endfacet
   facet normal -2.641954e-01 9.644692e-01 0.000000e+00
      outer loop
         vertex 2.222067e+02 -7.163269e+02 4.452628e+03
         vertex 2.222067e+02 -7.163269e+02 2.452628e+03
         vertex 1.738651e+02 -7.295690e+02 2.452628e+03
      endloop
   endfacet
   facet normal -2.318198e-01 9.727584e-01 -8.374284e-04
      outer loop
         vertex 2.222067e+02 -7.163269e+02 4.452628e+03
         vertex 1.738651e+02 -7.295690e+02 2.452628e+03
         vertex 1.247470e+02 -7.395527e+02 4.452628e+03
      endloop
   endfacet
   facet normal -1.991853e-01 9.799618e-01 0.000000e+00
      outer loop
         vertex 1.738651e+02 -7.295690e+02 2.452628e+03
         vertex 1.247470e+02 -7.395527e+02 2.452628e+03
         vertex 1.247470e+02 -7.395527e+02 4.452628e+03
      endloop
   endfacet
   facet normal -1.332869e-01 9.910775e-01 0.000000e+00
      outer loop
         vertex 1.247470e+02 -7.395527e+02 4.452628e+03
         vertex 1.247470e+02 -7.395527e+02 2.452628e+03
         vertex 7.507177e+01 -7.462333e+02 2.452628e+03
      endloop
   endfacet
   facet normal -1.000956e-01 9.949775e-01 -8.374185e-04
      outer loop
         vertex 1.247470e+02 -7.395527e+02 4.452628e+03
         vertex 7.507177e+01 -7.462333e+02 2.452628e+03
         vertex 2.506123e+01 -7.495812e+02 4.452628e+03
      endloop
   endfacet
   facet normal -6.679269e-02 9.977669e-01 0.000000e+00
      outer loop
         vertex 7.507177e+01 -7.462333e+02 2.452628e+03
         vertex 2.506123e+01 -7.495812e+02 2.452628e+03
         vertex 2.506123e+01 -7.495812e+02 4.452628e+03
      endloop
   endfacet
   facet normal 0.000000e+00 1.000000e+00 0.000000e+00
      outer loop
         vertex 2.506123e+01 -7.495812e+02 4.452628e+03
         vertex 2.506123e+01 -7.495812e+02 2.452628e+03
         vertex -2.506123e+01 -7.495812e+02 2.452628e+03
      endloop
   endfacet
   facet normal 3.341499e-02 9.994412e-01 -8.374208e-04
      outer loop
         vertex 2.506123e+01 -7.495812e+02 4.452628e+03
         vertex -2.506123e+01 -7.495812e+02 2.452628e+03
         vertex -7.507177e+01 -7.462333e+02 4.452628e+03
      endloop
   endfacet
   facet normal 6.679269e-02 9.977669e-01 0.000000e+00
      outer loop
         vertex -2.506123e+01 -7.495812e+02 2.452628e+03
         vertex -7.507177e+01 -7.462333e+02 2.452628e+03
         vertex -7.507177e+01 -7.462333e+02 4.452628e+03
      endloop
   endfacet
   facet normal 1.332869e-01 9.910775e-01 0.000000e+00
      outer loop
         vertex -7.507177e+01 -7.462333e+02 4.452628e+03
         vertex -7.507177e+01 -7.462333e+02 2.452628e+03
         vertex -1.247470e+02 -7.395527e+02 2.452628e+03
      endloop
   endfacet
   facet normal 1.663289e-01 9.860700e-01 -8.374128e-04
      outer loop
         vertex -7.507177e+01 -7.462333e+02 4.452628e+03
         vertex -1.247470e+02 -7.395527e+02 2.452628e+03
         vertex -1.738651e+02 -7.295690e+02 4.452628e+03
      endloop
   endfacet
   facet normal 1.991853e-01 9.799618e-01 0.000000e+00
      outer loop
         vertex -1.247470e+02 -7.395527e+02 2.452628e+03
         vertex -1.738651e+02 -7.295690e+02 2.452628e+03
         vertex -1.738651e+02 -7.295690e+02 4.452628e+03
      endloop
   endfacet
   facet normal 2.641954e-01 9.644692e-01 0.000000e+00
      outer loop
         vertex -1.738651e+02 -7.295690e+02 4.452628e+03
         vertex -1.738651e+02 -7.295690e+02 2.452628e+03
         vertex -2.222067e+02 -7.163269e+02 2.452628e+03
      endloop
   endfacet
   facet normal 2.962754e-01 9.551022e-01 -8.374168e-04
      outer loop
         vertex -1.738651e+02 -7.295690e+02 4.452628e+03
         vertex -2.222067e+02 -7.163269e+02 2.452628e+03
         vertex -2.695558e+02 -6.998855e+02 4.452628e+03
      endloop
   endfacet
   facet normal 3.280246e-01 9.446692e-01 0.000000e+00
      outer loop
         vertex -2.222067e+02 -7.163269e+02 2.452628e+03
         vertex -2.695558e+02 -6.998855e+02 2.452628e+03
         vertex -2.695558e+02 -6.998855e+02 4.452628e+03
      endloop
   endfacet
   facet normal 3.903900e-01 9.206496e-01 0.000000e+00
      outer loop
         vertex -2.695558e+02 -6.998855e+02 4.452628e+03
         vertex -2.695558e+02 -6.998855e+02 2.452628e+03
         vertex -3.157011e+02 -6.803182e+02 2.452628e+03
      endloop
   endfacet
   facet normal 4.209348e-01 9.070905e-01 -8.374045e-04
      outer loop
         vertex -2.695558e+02 -6.998855e+02 4.452628e+03
         vertex -3.157011e+02 -6.803182e+02 2.452628e+03
         vertex -3.604363e+02 -6.577125e+02 4.452628e+03
      endloop
   endfacet
   facet normal 4.510097e-01 8.925190e-01 0.000000e+00
      outer loop
         vertex -3.157011e+02 -6.803182e+02 2.452628e+03
         vertex -3.604363e+02 -6.577125e+02 2.452628e+03
         vertex -3.604363e+02 -6.577125e+02 4.452628e+03
      endloop
   endfacet
   facet normal 5.096171e-01 8.604013e-01 0.000000e+00
      outer loop
         vertex -3.604363e+02 -6.577125e+02 4.452628e+03
         vertex -3.604363e+02 -6.577125e+02 2.452628e+03
         vertex -4.035618e+02 -6.321692e+02 2.452628e+03
      endloop
   endfacet
   facet normal 5.380821e-01 8.428920e-01 -8.374071e-04
      outer loop
         vertex -3.604363e+02 -6.577125e+02 4.452628e+03
         vertex -4.035618e+02 -6.321692e+02 2.452628e+03
         vertex -4.448848e+02 -6.038026e+02 4.452628e+03
      endloop
   endfacet
   facet normal 5.659466e-01 8.244419e-01 0.000000e+00
      outer loop
         vertex -4.035618e+02 -6.321692e+02 2.452628e+03
         vertex -4.448848e+02 -6.038026e+02 2.452628e+03
         vertex -4.448848e+02 -6.038026e+02 4.452628e+03
      endloop
   endfacet
   facet normal 6.197504e-01 7.847990e-01 0.000000e+00
      outer loop
         vertex -4.448848e+02 -6.038026e+02 4.452628e+03
         vertex -4.448848e+02 -6.038026e+02 2.452628e+03
         vertex -4.842209e+02 -5.727391e+02 2.452628e+03
      endloop
   endfacet
   facet normal 6.456278e-01 7.636517e-01 -8.374117e-04
      outer loop
         vertex -4.448848e+02 -6.038026e+02 4.452628e+03
         vertex -4.842209e+02 -5.727391e+02 2.452628e+03
         vertex -5.213943e+02 -5.391178e+02 4.452628e+03
      endloop
   endfacet
   facet normal 6.707847e-01 7.416521e-01 0.000000e+00
      outer loop
         vertex -4.842209e+02 -5.727391e+02 2.452628e+03
         vertex -5.213943e+02 -5.391178e+02 2.452628e+03
         vertex -5.213943e+02 -5.391178e+02 4.452628e+03
      endloop
   endfacet
   facet normal 7.188237e-01 6.951924e-01 0.000000e+00
      outer loop
         vertex -5.213943e+02 -5.391178e+02 4.452628e+03
         vertex -5.213943e+02 -5.391178e+02 2.452628e+03
         vertex -5.562391e+02 -5.030885e+02 2.452628e+03
      endloop
   endfacet
   facet normal 7.416516e-01 6.707848e-01 -8.374084e-04
      outer loop
         vertex -5.213943e+02 -5.391178e+02 4.452628e+03
         vertex -5.562391e+02 -5.030885e+02 2.452628e+03
         vertex -5.885996e+02 -4.648124e+02 4.452628e+03
      endloop
   endfacet
   facet normal 7.636517e-01 6.456285e-01 0.000000e+00
      outer loop
         vertex -5.562391e+02 -5.030885e+02 2.452628e+03
         vertex -5.885996e+02 -4.648124e+02 2.452628e+03
         vertex -5.885996e+02 -4.648124e+02 4.452628e+03
      endloop
   endfacet
   facet normal 8.050701e-01 5.931796e-01 0.000000e+00
      outer loop
         vertex -5.885996e+02 -4.648124e+02 4.452628e+03
         vertex -5.885996e+02 -4.648124e+02 2.452628e+03
         vertex -6.183312e+02 -4.244603e+02 2.452628e+03
      endloop
   endfacet
   facet normal 8.244415e-01 5.659466e-01 -8.374270e-04
      outer loop
         vertex -5.885996e+02 -4.648124e+02 4.452628e+03
         vertex -6.183312e+02 -4.244603e+02 2.452628e+03
         vertex -6.453012e+02 -3.822125e+02 4.452628e+03
      endloop
   endfacet
   facet normal 8.428926e-01 5.380818e-01 0.000000e+00
      outer loop
         vertex -6.183312e+02 -4.244603e+02 2.452628e+03
         vertex -6.453012e+02 -3.822125e+02 2.452628e+03
         vertex -6.453012e+02 -3.822125e+02 4.452628e+03
      endloop
   endfacet
   facet normal 8.769498e-01 4.805820e-01 0.000000e+00
      outer loop
         vertex -6.453012e+02 -3.822125e+02 4.452628e+03
         vertex -6.453012e+02 -3.822125e+02 2.452628e+03
         vertex -6.693891e+02 -3.382576e+02 2.452628e+03
      endloop
   endfacet
   facet normal 8.925183e-01 4.510104e-01 -8.374156e-04
      outer loop
         vertex -6.453012e+02 -3.822125e+02 4.452628e+03
         vertex -6.693891e+02 -3.382576e+02 2.452628e+03
         vertex -6.904874e+02 -2.927920e+02 4.452628e+03
      endloop
   endfacet
   facet normal 9.070907e-01 4.209353e-01 0.000000e+00
      outer loop
         vertex -6.693891e+02 -3.382576e+02 2.452628e+03
         vertex -6.904874e+02 -2.927920e+02 2.452628e+03
         vertex -6.904874e+02 -2.927920e+02 4.452628e+03
      endloop
   endfacet
   facet normal 9.331808e-01 3.594072e-01 0.000000e+00
      outer loop
         vertex -6.904874e+02 -2.927920e+02 4.452628e+03
         vertex -6.904874e+02 -2.927920e+02 2.452628e+03
         vertex -7.085018e+02 -2.460186e+02 2.452628e+03
      endloop
   endfacet
   facet normal 9.446688e-01 3.280246e-01 -8.374086e-04
      outer loop
         vertex -6.904874e+02 -2.927920e+02 4.452628e+03
         vertex -7.085018e+02 -2.460186e+02 2.452628e+03
         vertex -7.233519e+02 -1.981466e+02 4.452628e+03
      endloop
   endfacet
   facet normal 9.551024e-01 2.962759e-01 0.000000e+00
      outer loop
         vertex -7.085018e+02 -2.460186e+02 2.452628e+03
         vertex -7.233519e+02 -1.981466e+02 2.452628e+03
         vertex -7.233519e+02 -1.981466e+02 4.452628e+03
      endloop
   endfacet
   facet normal 9.727587e-01 2.318200e-01 0.000000e+00
      outer loop
         vertex -7.233519e+02 -1.981466e+02 4.452628e+03
         vertex -7.233519e+02 -1.981466e+02 2.452628e+03
         vertex -7.349713e+02 -1.493895e+02 2.452628e+03
      endloop
   endfacet
   facet normal 9.799614e-01 1.991859e-01 -8.374171e-04
      outer loop
         vertex -7.233519e+02 -1.981466e+02 4.452628e+03
         vertex -7.349713e+02 -1.493895e+02 2.452628e+03
         vertex -7.433081e+02 -9.996521e+01 4.452628e+03
      endloop
   endfacet
   facet normal 9.860702e-01 1.663294e-01 0.000000e+00
      outer loop
         vertex -7.349713e+02 -1.493895e+02 2.452628e+03
         vertex -7.433081e+02 -9.996521e+01 2.452628e+03
         vertex -7.433081e+02 -9.996521e+01 4.452628e+03
      endloop
   endfacet
   facet normal 9.949778e-01 1.000957e-01 0.000000e+00
      outer loop
         vertex -7.433081e+02 -9.996521e+01 4.452628e+03
         vertex -7.433081e+02 -9.996521e+01 2.452628e+03
         vertex -7.483252e+02 -5.009447e+01 2.452628e+03
      endloop
   endfacet
   facet normal 9.977665e-01 6.679250e-02 -8.374225e-04
      outer loop
         vertex -7.433081e+02 -9.996521e+01 4.452628e+03
         vertex -7.483252e+02 -5.009447e+01 2.452628e+03
         vertex -7.500000e+02 -1.836970e-13 4.452628e+03
      endloop
   endfacet
   facet normal 9.994416e-01 3.341478e-02 0.000000e+00
      outer loop
         vertex -7.500000e+02 -1.836970e-13 4.452628e+03
         vertex -7.483252e+02 -5.009447e+01 2.452628e+03
         vertex -7.500000e+02 -1.836970e-13 2.452628e+03
      endloop
   endfacet
   facet normal 9.994416e-01 -3.341478e-02 0.000000e+00
      outer loop
         vertex -7.500000e+02 -1.836970e-13 4.452628e+03
         vertex -7.500000e+02 -1.836970e-13 2.452628e+03
         vertex -7.483252e+02 5.009447e+01 2.452628e+03
      endloop
   endfacet
   facet normal -8.639160e-01 5.783241e-02 5.003044e-01
      outer loop
         vertex 2.000000e+02 0.000000e+00 1.500000e+03
         vertex 1.982155e+02 -2.665739e+01 1.500000e+03
         vertex 7.483252e+02 -5.009447e+01 2.452628e+03
      endloop
   endfacet
   facet normal -8.484994e-01 1.724652e-01 5.003044e-01
      outer loop
         vertex 1.928938e+02 -5.283908e+01 1.500000e+03
         vertex 7.349713e+02 -1.493895e+02 2.452628e+03
         vertex 1.982155e+02 -2.665739e+01 1.500000e+03
      endloop
   endfacet
   facet normal -8.540811e-01 1.440656e-01 4.997906e-01
      outer loop
         vertex 1.982155e+02 -2.665739e+01 1.500000e+03
         vertex 7.349713e+02 -1.493895e+02 2.452628e+03
         vertex 7.433081e+02 -9.996521e+01 2.452628e+03
      endloop
   endfacet
   facet normal -8.617963e-01 8.669750e-02 4.997906e-01
      outer loop
         vertex 1.982155e+02 -2.665739e+01 1.500000e+03
         vertex 7.433081e+02 -9.996521e+01 2.452628e+03
         vertex 7.483252e+02 -5.009447e+01 2.452628e+03
      endloop
   endfacet
   facet normal -8.179414e-01 2.840200e-01 5.003044e-01
      outer loop
         vertex 1.841300e+02 -7.807785e+01 1.500000e+03
         vertex 7.085018e+02 -2.460186e+02 2.452628e+03
         vertex 1.928938e+02 -5.283908e+01 1.500000e+03
      endloop
   endfacet
   facet normal -8.272584e-01 2.566182e-01 4.997906e-01
      outer loop
         vertex 1.928938e+02 -5.283908e+01 1.500000e+03
         vertex 7.085018e+02 -2.460186e+02 2.452628e+03
         vertex 7.233519e+02 -1.981466e+02 2.452628e+03
      endloop
   endfacet
   facet normal -8.425513e-01 2.007900e-01 4.997906e-01
      outer loop
         vertex 1.928938e+02 -5.283908e+01 1.500000e+03
         vertex 7.233519e+02 -1.981466e+02 2.452628e+03
         vertex 7.349713e+02 -1.493895e+02 2.452628e+03
      endloop
   endfacet
   facet normal -7.727871e-01 3.905068e-01 5.003044e-01
      outer loop
         vertex 1.720803e+02 -1.019233e+02 1.500000e+03
         vertex 6.693891e+02 -3.382576e+02 2.452628e+03
         vertex 1.841300e+02 -7.807785e+01 1.500000e+03
      endloop
   endfacet
   facet normal -7.856732e-01 3.645916e-01 4.997906e-01
      outer loop
         vertex 1.841300e+02 -7.807785e+01 1.500000e+03
         vertex 6.693891e+02 -3.382576e+02 2.452628e+03
         vertex 6.904874e+02 -2.927920e+02 2.452628e+03
      endloop
   endfacet
   facet normal -8.082711e-01 3.112992e-01 4.997906e-01
      outer loop
         vertex 1.841300e+02 -7.807785e+01 1.500000e+03
         vertex 6.904874e+02 -2.927920e+02 2.452628e+03
         vertex 7.085018e+02 -2.460186e+02 2.452628e+03
      endloop
   endfacet
   facet normal -7.138422e-01 4.900253e-01 5.003045e-01
      outer loop
         vertex 1.569599e+02 -1.239500e+02 1.500000e+03
         vertex 6.183312e+02 -4.244603e+02 2.452628e+03
         vertex 1.720803e+02 -1.019233e+02 1.500000e+03
      endloop
   endfacet
   facet normal -7.300683e-01 4.660575e-01 4.997906e-01
      outer loop
         vertex 1.720803e+02 -1.019233e+02 1.500000e+03
         vertex 6.183312e+02 -4.244603e+02 2.452628e+03
         vertex 6.453012e+02 -3.822125e+02 2.452628e+03
      endloop
   endfacet
   facet normal -7.595668e-01 4.162543e-01 4.997905e-01
      outer loop
         vertex 1.720803e+02 -1.019233e+02 1.500000e+03
         vertex 6.453012e+02 -3.822125e+02 2.452628e+03
         vertex 6.693891e+02 -3.382576e+02 2.452628e+03
      endloop
   endfacet
   facet normal -6.421592e-01 5.807986e-01 5.003044e-01
      outer loop
         vertex 1.390385e+02 -1.437647e+02 1.500000e+03
         vertex 5.562391e+02 -5.030885e+02 2.452628e+03
         vertex 1.569599e+02 -1.239500e+02 1.500000e+03
      endloop
   endfacet
   facet normal -6.614340e-01 5.592087e-01 4.997906e-01
      outer loop
         vertex 1.569599e+02 -1.239500e+02 1.500000e+03
         vertex 5.562391e+02 -5.030885e+02 2.452628e+03
         vertex 5.885996e+02 -4.648124e+02 2.452628e+03
      endloop
   endfacet
   facet normal -6.973085e-01 5.137803e-01 4.997906e-01
      outer loop
         vertex 1.569599e+02 -1.239500e+02 1.500000e+03
         vertex 5.885996e+02 -4.648124e+02 2.452628e+03
         vertex 6.183312e+02 -4.244603e+02 2.452628e+03
      endloop
   endfacet
   facet normal -5.590166e-01 6.612080e-01 5.003044e-01
      outer loop
         vertex 1.186360e+02 -1.610140e+02 1.500000e+03
         vertex 4.842209e+02 -5.727391e+02 2.452628e+03
         vertex 1.390385e+02 -1.437647e+02 1.500000e+03
      endloop
   endfacet
   facet normal -5.809977e-01 6.423792e-01 4.997906e-01
      outer loop
         vertex 1.390385e+02 -1.437647e+02 1.500000e+03
         vertex 4.842209e+02 -5.727391e+02 2.452628e+03
         vertex 5.213943e+02 -5.391178e+02 2.452628e+03
      endloop
   endfacet
   facet normal -6.226065e-01 6.021383e-01 4.997906e-01
      outer loop
         vertex 1.390385e+02 -1.437647e+02 1.500000e+03
         vertex 5.213943e+02 -5.391178e+02 2.452628e+03
         vertex 5.562391e+02 -5.030885e+02 2.452628e+03
      endloop
   endfacet
   facet normal -4.658985e-01 7.298178e-01 5.003044e-01
      outer loop
         vertex 9.611635e+01 -1.753900e+02 1.500000e+03
         vertex 4.035618e+02 -6.321692e+02 2.452628e+03
         vertex 1.186360e+02 -1.610140e+02 1.500000e+03
      endloop
   endfacet
   facet normal -4.901926e-01 7.140873e-01 4.997906e-01
      outer loop
         vertex 1.186360e+02 -1.610140e+02 1.500000e+03
         vertex 4.035618e+02 -6.321692e+02 2.452628e+03
         vertex 4.448848e+02 -6.038026e+02 2.452628e+03
      endloop
   endfacet
   facet normal -5.367945e-01 6.797507e-01 4.997906e-01
      outer loop
         vertex 1.186360e+02 -1.610140e+02 1.500000e+03
         vertex 4.448848e+02 -6.038026e+02 2.452628e+03
         vertex 4.842209e+02 -5.727391e+02 2.452628e+03
      endloop
   endfacet
   facet normal -3.644660e-01 7.854043e-01 5.003044e-01
      outer loop
         vertex 7.188156e+01 -1.866361e+02 1.500000e+03
         vertex 3.157011e+02 -6.803182e+02 2.452628e+03
         vertex 9.611635e+01 -1.753900e+02 1.500000e+03
      endloop
   endfacet
   facet normal -3.906404e-01 7.730521e-01 4.997906e-01
      outer loop
         vertex 9.611635e+01 -1.753900e+02 1.500000e+03
         vertex 3.157011e+02 -6.803182e+02 2.452628e+03
         vertex 3.604363e+02 -6.577125e+02 2.452628e+03
      endloop
   endfacet
   facet normal -4.414029e-01 7.452334e-01 4.997906e-01
      outer loop
         vertex 9.611635e+01 -1.753900e+02 1.500000e+03
         vertex 3.604363e+02 -6.577125e+02 2.452628e+03
         vertex 4.035618e+02 -6.321692e+02 2.452628e+03
      endloop
   endfacet
   facet normal -2.565303e-01 8.269750e-01 5.003045e-01
      outer loop
         vertex 4.636403e+01 -1.945517e+02 1.500000e+03
         vertex 2.222067e+02 -7.163269e+02 2.452628e+03
         vertex 7.188156e+01 -1.866361e+02 1.500000e+03
      endloop
   endfacet
   facet normal -2.841173e-01 8.182217e-01 4.997906e-01
      outer loop
         vertex 7.188156e+01 -1.866361e+02 1.500000e+03
         vertex 2.222067e+02 -7.163269e+02 2.452628e+03
         vertex 2.695558e+02 -6.998855e+02 2.452628e+03
      endloop
   endfacet
   facet normal -3.381348e-01 7.974172e-01 4.997906e-01
      outer loop
         vertex 7.188156e+01 -1.866361e+02 1.500000e+03
         vertex 2.695558e+02 -6.998855e+02 2.452628e+03
         vertex 3.157011e+02 -6.803182e+02 2.452628e+03
      endloop
   endfacet
   facet normal -1.440160e-01 8.537885e-01 5.003044e-01
      outer loop
         vertex 2.001914e+01 -1.989956e+02 1.500000e+03
         vertex 1.247470e+02 -7.395527e+02 2.452628e+03
         vertex 4.636403e+01 -1.945517e+02 1.500000e+03
      endloop
   endfacet
   facet normal -1.725236e-01 8.487903e-01 4.997906e-01
      outer loop
         vertex 4.636403e+01 -1.945517e+02 1.500000e+03
         vertex 1.247470e+02 -7.395527e+02 2.452628e+03
         vertex 1.738651e+02 -7.295690e+02 2.452628e+03
      endloop
   endfacet
   facet normal -2.288319e-01 8.353714e-01 4.997906e-01
      outer loop
         vertex 4.636403e+01 -1.945517e+02 1.500000e+03
         vertex 1.738651e+02 -7.295690e+02 2.452628e+03
         vertex 2.222067e+02 -7.163269e+02 2.452628e+03
      endloop
   endfacet
   facet normal -2.893262e-02 8.653660e-01 5.003044e-01
      outer loop
         vertex -6.682995e+00 -1.998883e+02 1.500000e+03
         vertex 2.506123e+01 -7.495812e+02 2.452628e+03
         vertex 2.001914e+01 -1.989956e+02 1.500000e+03
      endloop
   endfacet
   facet normal -5.785224e-02 8.642121e-01 4.997906e-01
      outer loop
         vertex 2.001914e+01 -1.989956e+02 1.500000e+03
         vertex 2.506123e+01 -7.495812e+02 2.452628e+03
         vertex 7.507177e+01 -7.462333e+02 2.452628e+03
      endloop
   endfacet
   facet normal -1.154459e-01 8.584181e-01 4.997906e-01
      outer loop
         vertex 2.001914e+01 -1.989956e+02 1.500000e+03
         vertex 7.507177e+01 -7.462333e+02 2.452628e+03
         vertex 1.247470e+02 -7.395527e+02 2.452628e+03
      endloop
   endfacet
   facet normal 8.666797e-02 8.615011e-01 5.003044e-01
      outer loop
         vertex -3.326587e+01 -1.972141e+02 1.500000e+03
         vertex -7.507177e+01 -7.462333e+02 2.452628e+03
         vertex -6.682995e+00 -1.998883e+02 1.500000e+03
      endloop
   endfacet
   facet normal 5.785224e-02 8.642121e-01 4.997905e-01
      outer loop
         vertex -6.682995e+00 -1.998883e+02 1.500000e+03
         vertex -7.507177e+01 -7.462333e+02 2.452628e+03
         vertex -2.506123e+01 -7.495812e+02 2.452628e+03
      endloop
   endfacet
   facet normal 0.000000e+00 8.661463e-01 4.997905e-01
      outer loop
         vertex -6.682995e+00 -1.998883e+02 1.500000e+03
         vertex -2.506123e+01 -7.495812e+02 2.452628e+03
         vertex 2.506123e+01 -7.495812e+02 2.452628e+03
      endloop
   endfacet
   facet normal 2.007213e-01 8.422627e-01 5.003045e-01
      outer loop
         vertex -5.925512e+01 -1.910205e+02 1.500000e+03
         vertex -1.738651e+02 -7.295690e+02 2.452628e+03
         vertex -3.326587e+01 -1.972141e+02 1.500000e+03
      endloop
   endfacet
   facet normal 1.725236e-01 8.487903e-01 4.997906e-01
      outer loop
         vertex -3.326587e+01 -1.972141e+02 1.500000e+03
         vertex -1.738651e+02 -7.295690e+02 2.452628e+03
         vertex -1.247470e+02 -7.395527e+02 2.452628e+03
      endloop
   endfacet
   facet normal 1.154459e-01 8.584181e-01 4.997905e-01
      outer loop
         vertex -3.326587e+01 -1.972141e+02 1.500000e+03
         vertex -1.247470e+02 -7.395527e+02 2.452628e+03
         vertex -7.507177e+01 -7.462333e+02 2.452628e+03
      endloop
   endfacet
   facet normal 3.111933e-01 8.079939e-01 5.003045e-01
      outer loop
         vertex -8.418695e+01 -1.814182e+02 1.500000e+03
         vertex -2.695558e+02 -6.998855e+02 2.452628e+03
         vertex -5.925512e+01 -1.910205e+02 1.500000e+03
      endloop
   endfacet
   facet normal 2.841173e-01 8.182217e-01 4.997906e-01
      outer loop
         vertex -5.925512e+01 -1.910205e+02 1.500000e+03
         vertex -2.695558e+02 -6.998855e+02 2.452628e+03
         vertex -2.222067e+02 -7.163269e+02 2.452628e+03
      endloop
   endfacet
   facet normal 2.288319e-01 8.353714e-01 4.997906e-01
      outer loop
         vertex -5.925512e+01 -1.910205e+02 1.500000e+03
         vertex -2.222067e+02 -7.163269e+02 2.452628e+03
         vertex -1.738651e+02 -7.295690e+02 2.452628e+03
      endloop
   endfacet
   facet normal 4.161112e-01 7.593068e-01 5.003045e-01
      outer loop
         vertex -1.076165e+02 -1.685785e+02 1.500000e+03
         vertex -3.604363e+02 -6.577125e+02 2.452628e+03
         vertex -8.418695e+01 -1.814182e+02 1.500000e+03
      endloop
   endfacet
   facet normal 3.906404e-01 7.730521e-01 4.997906e-01
      outer loop
         vertex -8.418695e+01 -1.814182e+02 1.500000e+03
         vertex -3.604363e+02 -6.577125e+02 2.452628e+03
         vertex -3.157011e+02 -6.803182e+02 2.452628e+03
      endloop
   endfacet
   facet normal 3.381348e-01 7.974172e-01 4.997906e-01
      outer loop
         vertex -8.418695e+01 -1.814182e+02 1.500000e+03
         vertex -3.157011e+02 -6.803182e+02 2.452628e+03
         vertex -2.695558e+02 -6.998855e+02 2.452628e+03
      endloop
   endfacet
   facet normal 5.136047e-01 6.970693e-01 5.003045e-01
      outer loop
         vertex -1.291256e+02 -1.527304e+02 1.500000e+03
         vertex -4.448848e+02 -6.038026e+02 2.452628e+03
         vertex -1.076165e+02 -1.685785e+02 1.500000e+03
      endloop
   endfacet
   facet normal 4.901926e-01 7.140873e-01 4.997906e-01
      outer loop
         vertex -1.076165e+02 -1.685785e+02 1.500000e+03
         vertex -4.448848e+02 -6.038026e+02 2.452628e+03
         vertex -4.035618e+02 -6.321692e+02 2.452628e+03
      endloop
   endfacet
   facet normal 4.414029e-01 7.452334e-01 4.997906e-01
      outer loop
         vertex -1.076165e+02 -1.685785e+02 1.500000e+03
         vertex -4.035618e+02 -6.321692e+02 2.452628e+03
         vertex -3.604363e+02 -6.577125e+02 2.452628e+03
      endloop
   endfacet
   facet normal 6.019320e-01 6.223932e-01 5.003044e-01
      outer loop
         vertex -1.483304e+02 -1.341569e+02 1.500000e+03
         vertex -5.213943e+02 -5.391178e+02 2.452628e+03
         vertex -1.291256e+02 -1.527304e+02 1.500000e+03
      endloop
   endfacet
   facet normal 5.809977e-01 6.423792e-01 4.997906e-01
      outer loop
         vertex -1.291256e+02 -1.527304e+02 1.500000e+03
         vertex -5.213943e+02 -5.391178e+02 2.452628e+03
         vertex -4.842209e+02 -5.727391e+02 2.452628e+03
      endloop
   endfacet
   facet normal 5.367945e-01 6.797507e-01 4.997906e-01
      outer loop
         vertex -1.291256e+02 -1.527304e+02 1.500000e+03
         vertex -4.842209e+02 -5.727391e+02 2.452628e+03
         vertex -4.448848e+02 -6.038026e+02 2.452628e+03
      endloop
   endfacet
   facet normal 6.795182e-01 5.366102e-01 5.003045e-01
      outer loop
         vertex -1.648883e+02 -1.131894e+02 1.500000e+03
         vertex -5.885996e+02 -4.648124e+02 2.452628e+03
         vertex -1.483304e+02 -1.341569e+02 1.500000e+03
      endloop
   endfacet
   facet normal 6.614340e-01 5.592087e-01 4.997906e-01
      outer loop
         vertex -1.483304e+02 -1.341569e+02 1.500000e+03
         vertex -5.885996e+02 -4.648124e+02 2.452628e+03
         vertex -5.562391e+02 -5.030885e+02 2.452628e+03
      endloop
   endfacet
   facet normal 6.226065e-01 6.021383e-01 4.997906e-01
      outer loop
         vertex -1.483304e+02 -1.341569e+02 1.500000e+03
         vertex -5.562391e+02 -5.030885e+02 2.452628e+03
         vertex -5.213943e+02 -5.391178e+02 2.452628e+03
      endloop
   endfacet
   facet normal 7.449783e-01 4.412514e-01 5.003044e-01
      outer loop
         vertex -1.785038e+02 -9.020203e+01 1.500000e+03
         vertex -6.453012e+02 -3.822125e+02 2.452628e+03
         vertex -1.648883e+02 -1.131894e+02 1.500000e+03
      endloop
   endfacet
   facet normal 7.300683e-01 4.660575e-01 4.997906e-01
      outer loop
         vertex -1.648883e+02 -1.131894e+02 1.500000e+03
         vertex -6.453012e+02 -3.822125e+02 2.452628e+03
         vertex -6.183312e+02 -4.244603e+02 2.452628e+03
      endloop
   endfacet
   facet normal 6.973085e-01 5.137803e-01 4.997906e-01
      outer loop
         vertex -1.648883e+02 -1.131894e+02 1.500000e+03
         vertex -6.183312e+02 -4.244603e+02 2.452628e+03
         vertex -5.885996e+02 -4.648124e+02 2.452628e+03
      endloop
   endfacet
   facet normal 7.971443e-01 3.380184e-01 5.003045e-01
      outer loop
         vertex -1.889338e+02 -6.560497e+01 1.500000e+03
         vertex -6.904874e+02 -2.927920e+02 2.452628e+03
         vertex -1.785038e+02 -9.020203e+01 1.500000e+03
      endloop
   endfacet
   facet normal 7.856732e-01 3.645916e-01 4.997906e-01
      outer loop
         vertex -1.785038e+02 -9.020203e+01 1.500000e+03
         vertex -6.904874e+02 -2.927920e+02 2.452628e+03
         vertex -6.693891e+02 -3.382576e+02 2.452628e+03
      endloop
   endfacet
   facet normal 7.595668e-01 4.162543e-01 4.997906e-01
      outer loop
         vertex -1.785038e+02 -9.020203e+01 1.500000e+03
         vertex -6.693891e+02 -3.382576e+02 2.452628e+03
         vertex -6.453012e+02 -3.822125e+02 2.452628e+03
      endloop
   endfacet
   facet normal 8.350853e-01 2.287533e-01 5.003045e-01
      outer loop
         vertex -1.959923e+02 -3.983720e+01 1.500000e+03
         vertex -7.233519e+02 -1.981466e+02 2.452628e+03
         vertex -1.889338e+02 -6.560497e+01 1.500000e+03
      endloop
   endfacet
   facet normal 8.272584e-01 2.566182e-01 4.997906e-01
      outer loop
         vertex -1.889338e+02 -6.560497e+01 1.500000e+03
         vertex -7.233519e+02 -1.981466e+02 2.452628e+03
         vertex -7.085018e+02 -2.460186e+02 2.452628e+03
      endloop
   endfacet
   facet normal 8.082711e-01 3.112992e-01 4.997906e-01
      outer loop
         vertex -1.889338e+02 -6.560497e+01 1.500000e+03
         vertex -7.085018e+02 -2.460186e+02 2.452628e+03
         vertex -6.904874e+02 -2.927920e+02 2.452628e+03
      endloop
   endfacet
   facet normal 8.581240e-01 1.154065e-01 5.003045e-01
      outer loop
         vertex -1.995534e+02 -1.335853e+01 1.500000e+03
         vertex -7.433081e+02 -9.996521e+01 2.452628e+03
         vertex -1.959923e+02 -3.983720e+01 1.500000e+03
      endloop
   endfacet
   facet normal 8.540811e-01 1.440656e-01 4.997906e-01
      outer loop
         vertex -1.959923e+02 -3.983720e+01 1.500000e+03
         vertex -7.433081e+02 -9.996521e+01 2.452628e+03
         vertex -7.349713e+02 -1.493895e+02 2.452628e+03
      endloop
   endfacet
   facet normal 8.425513e-01 2.007900e-01 4.997906e-01
      outer loop
         vertex -1.959923e+02 -3.983720e+01 1.500000e+03
         vertex -7.349713e+02 -1.493895e+02 2.452628e+03
         vertex -7.233519e+02 -1.981466e+02 2.452628e+03
      endloop
   endfacet
   facet normal 8.581240e-01 -1.154065e-01 5.003045e-01
      outer loop
         vertex -1.959923e+02 3.983720e+01 1.500000e+03
         vertex -7.433081e+02 9.996521e+01 2.452628e+03
         vertex -1.995534e+02 1.335853e+01 1.500000e+03
      endloop
   endfacet
   facet normal 8.617963e-01 -8.669750e-02 4.997906e-01
      outer loop
         vertex -1.995534e+02 1.335853e+01 1.500000e+03
         vertex -7.433081e+02 9.996521e+01 2.452628e+03
         vertex -7.483252e+02 5.009447e+01 2.452628e+03
      endloop
   endfacet
   facet normal 8.656626e-01 -2.894279e-02 4.997906e-01
      outer loop
         vertex -1.995534e+02 1.335853e+01 1.500000e+03
         vertex -7.483252e+02 5.009447e+01 2.452628e+03
         vertex -2.000000e+02 2.449294e-14 1.500000e+03
      endloop
   endfacet
   facet normal 8.656626e-01 -2.894208e-02 4.997906e-01
      outer loop
         vertex -2.000000e+02 2.449294e-14 1.500000e+03
         vertex -7.483252e+02 5.009447e+01 2.452628e+03
         vertex -7.500000e+02 2.755455e-13 2.452628e+03
      endloop
   endfacet
   facet normal 8.656626e-01 2.894279e-02 4.997906e-01
      outer loop
         vertex -2.000000e+02 2.449294e-14 1.500000e+03
         vertex -7.500000e+02 2.755455e-13 2.452628e+03
         vertex -1.995534e+02 -1.335853e+01 1.500000e+03
      endloop
   endfacet
   facet normal 8.656626e-01 2.894208e-02 4.997906e-01
      outer loop
         vertex -1.995534e+02 -1.335853e+01 1.500000e+03
         vertex -7.500000e+02 2.755455e-13 2.452628e+03
         vertex -7.483252e+02 -5.009447e+01 2.452628e+03
      endloop
   endfacet
   facet normal 8.617963e-01 8.669750e-02 4.997906e-01
      outer loop
         vertex -1.995534e+02 -1.335853e+01 1.500000e+03
         vertex -7.483252e+02 -5.009447e+01 2.452628e+03
         vertex -7.433081e+02 -9.996521e+01 2.452628e+03
      endloop
   endfacet
   facet normal 8.350853e-01 -2.287533e-01 5.003045e-01
      outer loop
         vertex -1.889338e+02 6.560497e+01 1.500000e+03
         vertex -7.233519e+02 1.981466e+02 2.452628e+03
         vertex -1.959923e+02 3.983720e+01 1.500000e+03
      endloop
   endfacet
   facet normal 8.425513e-01 -2.007900e-01 4.997906e-01
      outer loop
         vertex -1.959923e+02 3.983720e+01 1.500000e+03
         vertex -7.233519e+02 1.981466e+02 2.452628e+03
         vertex -7.349713e+02 1.493895e+02 2.452628e+03
      endloop
   endfacet
   facet normal 8.540811e-01 -1.440656e-01 4.997906e-01
      outer loop
         vertex -1.959923e+02 3.983720e+01 1.500000e+03
         vertex -7.349713e+02 1.493895e+02 2.452628e+03
         vertex -7.433081e+02 9.996521e+01 2.452628e+03
      endloop
   endfacet
   facet normal 7.971443e-01 -3.380184e-01 5.003045e-01
      outer loop
         vertex -1.785038e+02 9.020203e+01 1.500000e+03
         vertex -6.904874e+02 2.927920e+02 2.452628e+03
         vertex -1.889338e+02 6.560497e+01 1.500000e+03
      endloop
   endfacet
   facet normal 8.082711e-01 -3.112992e-01 4.997906e-01
      outer loop
         vertex -1.889338e+02 6.560497e+01 1.500000e+03
         vertex -6.904874e+02 2.927920e+02 2.452628e+03
         vertex -7.085018e+02 2.460186e+02 2.452628e+03
      endloop
   endfacet
   facet normal 8.272584e-01 -2.566182e-01 4.997906e-01
      outer loop
         vertex -1.889338e+02 6.560497e+01 1.500000e+03
         vertex -7.085018e+02 2.460186e+02 2.452628e+03
         vertex -7.233519e+02 1.981466e+02 2.452628e+03
      endloop
   endfacet
   facet normal 7.449783e-01 -4.412514e-01 5.003044e-01
      outer loop
         vertex -1.648883e+02 1.131894e+02 1.500000e+03
         vertex -6.453012e+02 3.822125e+02 2.452628e+03
         vertex -1.785038e+02 9.020203e+01 1.500000e+03
      endloop
   endfacet
   facet normal 7.595668e-01 -4.162543e-01 4.997906e-01
      outer loop
         vertex -1.785038e+02 9.020203e+01 1.500000e+03
         vertex -6.453012e+02 3.822125e+02 2.452628e+03
         vertex -6.693891e+02 3.382576e+02 2.452628e+03
      endloop
   endfacet
   facet normal 7.856732e-01 -3.645916e-01 4.997906e-01
      outer loop
         vertex -1.785038e+02 9.020203e+01 1.500000e+03
         vertex -6.693891e+02 3.382576e+02 2.452628e+03
         vertex -6.904874e+02 2.927920e+02 2.452628e+03
      endloop
   endfacet
   facet normal 6.795182e-01 -5.366102e-01 5.003045e-01
      outer loop
         vertex -1.483304e+02 1.341569e+02 1.500000e+03
         vertex -5.885996e+02 4.648124e+02 2.452628e+03
         vertex -1.648883e+02 1.131894e+02 1.500000e+03
      endloop
   endfacet
   facet normal 6.973085e-01 -5.137803e-01 4.997906e-01
      outer loop
         vertex -1.648883e+02 1.131894e+02 1.500000e+03
         vertex -5.885996e+02 4.648124e+02 2.452628e+03
         vertex -6.183312e+02 4.244603e+02 2.452628e+03
      endloop
   endfacet
   facet normal 7.300683e-01 -4.660575e-01 4.997906e-01
      outer loop
         vertex -1.648883e+02 1.131894e+02 1.500000e+03
         vertex -6.183312e+02 4.244603e+02 2.452628e+03
         vertex -6.453012e+02 3.822125e+02 2.452628e+03
      endloop
   endfacet
   facet normal 6.019320e-01 -6.223932e-01 5.003044e-01
      outer loop
         vertex -1.291256e+02 1.527304e+02 1.500000e+03
         vertex -5.213943e+02 5.391178e+02 2.452628e+03
         vertex -1.483304e+02 1.341569e+02 1.500000e+03
      endloop
   endfacet
   facet normal 6.226065e-01 -6.021383e-01 4.997906e-01
      outer loop
         vertex -1.483304e+02 1.341569e+02 1.500000e+03
         vertex -5.213943e+02 5.391178e+02 2.452628e+03
         vertex -5.562391e+02 5.030885e+02 2.452628e+03
      endloop
   endfacet
   facet normal 6.614340e-01 -5.592087e-01 4.997906e-01
      outer loop
         vertex -1.483304e+02 1.341569e+02 1.500000e+03
         vertex -5.562391e+02 5.030885e+02 2.452628e+03
         vertex -5.885996e+02 4.648124e+02 2.452628e+03
      endloop
   endfacet
   facet normal 5.136047e-01 -6.970693e-01 5.003045e-01
      outer loop
         vertex -1.076165e+02 1.685785e+02 1.500000e+03
         vertex -4.448848e+02 6.038026e+02 2.452628e+03
         vertex -1.291256e+02 1.527304e+02 1.500000e+03
      endloop
   endfacet
   facet normal 5.367945e-01 -6.797507e-01 4.997906e-01
      outer loop
         vertex -1.291256e+02 1.527304e+02 1.500000e+03
         vertex -4.448848e+02 6.038026e+02 2.452628e+03
         vertex -4.842209e+02 5.727391e+02 2.452628e+03
      endloop
   endfacet
   facet normal 5.809977e-01 -6.423792e-01 4.997906e-01
      outer loop
         vertex -1.291256e+02 1.527304e+02 1.500000e+03
         vertex -4.842209e+02 5.727391e+02 2.452628e+03
         vertex -5.213943e+02 5.391178e+02 2.452628e+03
      endloop
   endfacet
   facet normal 4.161112e-01 -7.593068e-01 5.003045e-01
      outer loop
         vertex -8.418695e+01 1.814182e+02 1.500000e+03
         vertex -3.604363e+02 6.577125e+02 2.452628e+03
         vertex -1.076165e+02 1.685785e+02 1.500000e+03
      endloop
   endfacet
   facet normal 4.414029e-01 -7.452334e-01 4.997906e-01
      outer loop
         vertex -1.076165e+02 1.685785e+02 1.500000e+03
         vertex -3.604363e+02 6.577125e+02 2.452628e+03
         vertex -4.035618e+02 6.321692e+02 2.452628e+03
      endloop
   endfacet
   facet normal 4.901926e-01 -7.140873e-01 4.997906e-01
      outer loop
         vertex -1.076165e+02 1.685785e+02 1.500000e+03
         vertex -4.035618e+02 6.321692e+02 2.452628e+03
         vertex -4.448848e+02 6.038026e+02 2.452628e+03
      endloop
   endfacet
   facet normal 3.111933e-01 -8.079939e-01 5.003045e-01
      outer loop
         vertex -5.925512e+01 1.910205e+02 1.500000e+03
         vertex -2.695558e+02 6.998855e+02 2.452628e+03
         vertex -8.418695e+01 1.814182e+02 1.500000e+03
      endloop
   endfacet
   facet normal 3.381348e-01 -7.974172e-01 4.997906e-01
      outer loop
         vertex -8.418695e+01 1.814182e+02 1.500000e+03
         vertex -2.695558e+02 6.998855e+02 2.452628e+03
         vertex -3.157011e+02 6.803182e+02 2.452628e+03
      endloop
   endfacet
   facet normal 3.906404e-01 -7.730521e-01 4.997906e-01
      outer loop
         vertex -8.418695e+01 1.814182e+02 1.500000e+03
         vertex -3.157011e+02 6.803182e+02 2.452628e+03
         vertex -3.604363e+02 6.577125e+02 2.452628e+03
      endloop
   endfacet
   facet normal 2.007213e-01 -8.422627e-01 5.003045e-01
      outer loop
         vertex -3.326587e+01 1.972141e+02 1.500000e+03
         vertex -1.738651e+02 7.295690e+02 2.452628e+03
         vertex -5.925512e+01 1.910205e+02 1.500000e+03
      endloop
   endfacet
   facet normal 2.288319e-01 -8.353714e-01 4.997906e-01
      outer loop
         vertex -5.925512e+01 1.910205e+02 1.500000e+03
         vertex -1.738651e+02 7.295690e+02 2.452628e+03
         vertex -2.222067e+02 7.163269e+02 2.452628e+03
      endloop
   endfacet
   facet normal 2.841173e-01 -8.182217e-01 4.997906e-01
      outer loop
         vertex -5.925512e+01 1.910205e+02 1.500000e+03
         vertex -2.222067e+02 7.163269e+02 2.452628e+03
         vertex -2.695558e+02 6.998855e+02 2.452628e+03
      endloop
   endfacet
   facet normal 8.666797e-02 -8.615011e-01 5.003044e-01
      outer loop
         vertex -6.682995e+00 1.998883e+02 1.500000e+03
         vertex -7.507177e+01 7.462333e+02 2.452628e+03
         vertex -3.326587e+01 1.972141e+02 1.500000e+03
      endloop
   endfacet
   facet normal 1.154459e-01 -8.584181e-01 4.997905e-01
      outer loop
         vertex -3.326587e+01 1.972141e+02 1.500000e+03
         vertex -7.507177e+01 7.462333e+02 2.452628e+03
         vertex -1.247470e+02 7.395527e+02 2.452628e+03
      endloop
   endfacet
   facet normal 1.725236e-01 -8.487903e-01 4.997906e-01
      outer loop
         vertex -3.326587e+01 1.972141e+02 1.500000e+03
         vertex -1.247470e+02 7.395527e+02 2.452628e+03
         vertex -1.738651e+02 7.295690e+02 2.452628e+03
      endloop
   endfacet
   facet normal -2.893262e-02 -8.653660e-01 5.003044e-01
      outer loop
         vertex 2.001914e+01 1.989956e+02 1.500000e+03
         vertex 2.506123e+01 7.495812e+02 2.452628e+03
         vertex -6.682995e+00 1.998883e+02 1.500000e+03
      endloop
   endfacet
   facet normal 0.000000e+00 -8.661463e-01 4.997905e-01
      outer loop
         vertex -6.682995e+00 1.998883e+02 1.500000e+03
         vertex 2.506123e+01 7.495812e+02 2.452628e+03
         vertex -2.506123e+01 7.495812e+02 2.452628e+03
      endloop
   endfacet
   facet normal 5.785224e-02 -8.642121e-01 4.997905e-01
      outer loop
         vertex -6.682995e+00 1.998883e+02 1.500000e+03
         vertex -2.506123e+01 7.495812e+02 2.452628e+03
         vertex -7.507177e+01 7.462333e+02 2.452628e+03
      endloop
   endfacet
   facet normal -1.440160e-01 -8.537885e-01 5.003044e-01
      outer loop
         vertex 4.636403e+01 1.945517e+02 1.500000e+03
         vertex 1.247470e+02 7.395527e+02 2.452628e+03
         vertex 2.001914e+01 1.989956e+02 1.500000e+03
      endloop
   endfacet
   facet normal -1.154459e-01 -8.584181e-01 4.997906e-01
      outer loop
         vertex 2.001914e+01 1.989956e+02 1.500000e+03
         vertex 1.247470e+02 7.395527e+02 2.452628e+03
         vertex 7.507177e+01 7.462333e+02 2.452628e+03
      endloop
   endfacet
   facet normal -5.785224e-02 -8.642121e-01 4.997906e-01
      outer loop
         vertex 2.001914e+01 1.989956e+02 1.500000e+03
         vertex 7.507177e+01 7.462333e+02 2.452628e+03
         vertex 2.506123e+01 7.495812e+02 2.452628e+03
      endloop
   endfacet
   facet normal -2.565303e-01 -8.269750e-01 5.003045e-01
      outer loop
         vertex 7.188156e+01 1.866361e+02 1.500000e+03
         vertex 2.222067e+02 7.163269e+02 2.452628e+03
         vertex 4.636403e+01 1.945517e+02 1.500000e+03
      endloop
   endfacet
   facet normal -2.288319e-01 -8.353714e-01 4.997906e-01
      outer loop
         vertex 4.636403e+01 1.945517e+02 1.500000e+03
         vertex 2.222067e+02 7.163269e+02 2.452628e+03
         vertex 1.738651e+02 7.295690e+02 2.452628e+03
      endloop
   endfacet
   facet normal -1.725236e-01 -8.487903e-01 4.997906e-01
      outer loop
         vertex 4.636403e+01 1.945517e+02 1.500000e+03
         vertex 1.738651e+02 7.295690e+02 2.452628e+03
         vertex 1.247470e+02 7.395527e+02 2.452628e+03
      endloop
   endfacet
   facet normal -3.644660e-01 -7.854043e-01 5.003044e-01
      outer loop
         vertex 9.611635e+01 1.753900e+02 1.500000e+03
         vertex 3.157011e+02 6.803182e+02 2.452628e+03
         vertex 7.188156e+01 1.866361e+02 1.500000e+03
      endloop
   endfacet
   facet normal -3.381348e-01 -7.974172e-01 4.997906e-01
      outer loop
         vertex 7.188156e+01 1.866361e+02 1.500000e+03
         vertex 3.157011e+02 6.803182e+02 2.452628e+03
         vertex 2.695558e+02 6.998855e+02 2.452628e+03
      endloop
   endfacet
   facet normal -2.841173e-01 -8.182217e-01 4.997906e-01
      outer loop
         vertex 7.188156e+01 1.866361e+02 1.500000e+03
         vertex 2.695558e+02 6.998855e+02 2.452628e+03
         vertex 2.222067e+02 7.163269e+02 2.452628e+03
      endloop
   endfacet
   facet normal -4.658985e-01 -7.298178e-01 5.003044e-01
      outer loop
         vertex 1.186360e+02 1.610140e+02 1.500000e+03
         vertex 4.035618e+02 6.321692e+02 2.452628e+03
         vertex 9.611635e+01 1.753900e+02 1.500000e+03
      endloop
   endfacet
   facet normal -4.414029e-01 -7.452334e-01 4.997906e-01
      outer loop
         vertex 9.611635e+01 1.753900e+02 1.500000e+03
         vertex 4.035618e+02 6.321692e+02 2.452628e+03
         vertex 3.604363e+02 6.577125e+02 2.452628e+03
      endloop
   endfacet
   facet normal -3.906404e-01 -7.730521e-01 4.997906e-01
      outer loop
         vertex 9.611635e+01 1.753900e+02 1.500000e+03
         vertex 3.604363e+02 6.577125e+02 2.452628e+03
         vertex 3.157011e+02 6.803182e+02 2.452628e+03
      endloop
   endfacet
   facet normal -5.590166e-01 -6.612080e-01 5.003044e-01
      outer loop
         vertex 1.390385e+02 1.437647e+02 1.500000e+03
         vertex 4.842209e+02 5.727391e+02 2.452628e+03
         vertex 1.186360e+02 1.610140e+02 1.500000e+03
      endloop
   endfacet
   facet normal -5.367945e-01 -6.797507e-01 4.997906e-01
      outer loop
         vertex 1.186360e+02 1.610140e+02 1.500000e+03
         vertex 4.842209e+02 5.727391e+02 2.452628e+03
         vertex 4.448848e+02 6.038026e+02 2.452628e+03
      endloop
   endfacet
   facet normal -4.901926e-01 -7.140873e-01 4.997906e-01
      outer loop
         vertex 1.186360e+02 1.610140e+02 1.500000e+03
         vertex 4.448848e+02 6.038026e+02 2.452628e+03
         vertex 4.035618e+02 6.321692e+02 2.452628e+03
      endloop
   endfacet
   facet normal -6.421592e-01 -5.807986e-01 5.003044e-01
      outer loop
         vertex 1.569599e+02 1.239500e+02 1.500000e+03
         vertex 5.562391e+02 5.030885e+02 2.452628e+03
         vertex 1.390385e+02 1.437647e+02 1.500000e+03
      endloop
   endfacet
   facet normal -6.226065e-01 -6.021383e-01 4.997906e-01
      outer loop
         vertex 1.390385e+02 1.437647e+02 1.500000e+03
         vertex 5.562391e+02 5.030885e+02 2.452628e+03
         vertex 5.213943e+02 5.391178e+02 2.452628e+03
      endloop
   endfacet
   facet normal -5.809977e-01 -6.423792e-01 4.997906e-01
      outer loop
         vertex 1.390385e+02 1.437647e+02 1.500000e+03
         vertex 5.213943e+02 5.391178e+02 2.452628e+03
         vertex 4.842209e+02 5.727391e+02 2.452628e+03
      endloop
   endfacet
   facet normal -7.138422e-01 -4.900253e-01 5.003045e-01
      outer loop
         vertex 1.720803e+02 1.019233e+02 1.500000e+03
         vertex 6.183312e+02 4.244603e+02 2.452628e+03
         vertex 1.569599e+02 1.239500e+02 1.500000e+03
      endloop
   endfacet
   facet normal -6.973085e-01 -5.137803e-01 4.997906e-01
      outer loop
         vertex 1.569599e+02 1.239500e+02 1.500000e+03
         vertex 6.183312e+02 4.244603e+02 2.452628e+03
         vertex 5.885996e+02 4.648124e+02 2.452628e+03
      endloop
   endfacet
   facet normal -6.614340e-01 -5.592087e-01 4.997906e-01
      outer loop
         vertex 1.569599e+02 1.239500e+02 1.500000e+03
         vertex 5.885996e+02 4.648124e+02 2.452628e+03
         vertex 5.562391e+02 5.030885e+02 2.452628e+03
      endloop
   endfacet
   facet normal -7.727871e-01 -3.905068e-01 5.003044e-01
      outer loop
         vertex 1.841300e+02 7.807785e+01 1.500000e+03
         vertex 6.693891e+02 3.382576e+02 2.452628e+03
         vertex 1.720803e+02 1.019233e+02 1.500000e+03
      endloop
   endfacet
   facet normal -7.595668e-01 -4.162543e-01 4.997905e-01
      outer loop
         vertex 1.720803e+02 1.019233e+02 1.500000e+03
         vertex 6.693891e+02 3.382576e+02 2.452628e+03
         vertex 6.453012e+02 3.822125e+02 2.452628e+03
      endloop
   endfacet
   facet normal -7.300683e-01 -4.660575e-01 4.997906e-01
      outer loop
         vertex 1.720803e+02 1.019233e+02 1.500000e+03
         vertex 6.453012e+02 3.822125e+02 2.452628e+03
         vertex 6.183312e+02 4.244603e+02 2.452628e+03
      endloop
   endfacet
   facet normal -8.179414e-01 -2.840200e-01 5.003044e-01
      outer loop
         vertex 1.928938e+02 5.283908e+01 1.500000e+03
         vertex 7.085018e+02 2.460186e+02 2.452628e+03
         vertex 1.841300e+02 7.807785e+01 1.500000e+03
      endloop
   endfacet
   facet normal -8.082711e-01 -3.112992e-01 4.997906e-01
      outer loop
         vertex 1.841300e+02 7.807785e+01 1.500000e+03
         vertex 7.085018e+02 2.460186e+02 2.452628e+03
         vertex 6.904874e+02 2.927920e+02 2.452628e+03
      endloop
   endfacet
   facet normal -7.856732e-01 -3.645916e-01 4.997906e-01
      outer loop
         vertex 1.841300e+02 7.807785e+01 1.500000e+03
         vertex 6.904874e+02 2.927920e+02 2.452628e+03
         vertex 6.693891e+02 3.382576e+02 2.452628e+03
      endloop
   endfacet
   facet normal -8.484994e-01 -1.724652e-01 5.003044e-01
      outer loop
         vertex 1.982155e+02 2.665739e+01 1.500000e+03
         vertex 7.349713e+02 1.493895e+02 2.452628e+03
         vertex 1.928938e+02 5.283908e+01 1.500000e+03
      endloop
   endfacet
   facet normal -8.425513e-01 -2.007900e-01 4.997906e-01
      outer loop
         vertex 1.928938e+02 5.283908e+01 1.500000e+03
         vertex 7.349713e+02 1.493895e+02 2.452628e+03
         vertex 7.233519e+02 1.981466e+02 2.452628e+03
      endloop
   endfacet
   facet normal -8.272584e-01 -2.566182e-01 4.997906e-01
      outer loop
         vertex 1.928938e+02 5.283908e+01 1.500000e+03
         vertex 7.233519e+02 1.981466e+02 2.452628e+03
         vertex 7.085018e+02 2.460186e+02 2.452628e+03
      endloop
   endfacet
   facet normal -8.656626e-01 2.894208e-02 4.997906e-01
      outer loop
         vertex 7.483252e+02 -5.009447e+01 2.452628e+03
         vertex 7.500000e+02 0.000000e+00 2.452628e+03
         vertex 2.000000e+02 0.000000e+00 1.500000e+03
      endloop
   endfacet
   facet normal -8.656626e-01 -2.894208e-02 4.997906e-01
      outer loop
         vertex 2.000000e+02 0.000000e+00 1.500000e+03
         vertex 7.500000e+02 0.000000e+00 2.452628e+03
         vertex 7.483252e+02 5.009447e+01 2.452628e+03
      endloop
   endfacet
   facet normal -8.639160e-01 -5.783241e-02 5.003044e-01
      outer loop
         vertex 2.000000e+02 0.000000e+00 1.500000e+03
         vertex 7.483252e+02 5.009447e+01 2.452628e+03
         vertex 1.982155e+02 2.665739e+01 1.500000e+03
      endloop
   endfacet
   facet normal -8.617963e-01 -8.669750e-02 4.997906e-01
      outer loop
         vertex 1.982155e+02 2.665739e+01 1.500000e+03
         vertex 7.483252e+02 5.009447e+01 2.452628e+03
         vertex 7.433081e+02 9.996521e+01 2.452628e+03
      endloop
   endfacet
   facet normal -8.540811e-01 -1.440656e-01 4.997906e-01
      outer loop
         vertex 1.982155e+02 2.665739e+01 1.500000e+03
         vertex 7.433081e+02 9.996521e+01 2.452628e+03
         vertex 7.349713e+02 1.493895e+02 2.452628e+03
      endloop
   endfacet
endsolid